<svg xmlns="http://www.w3.org/2000/svg" viewBox="0 0 64 64"><title>ProjectX</title><rect width="64" height="64" rx="14" fill="#0a0f0c"/><g fill="#e99e00"><rect x="8.69" y="8.69" width="4.53" height="4.53"/><rect x="8.69" y="50.79" width="4.53" height="4.53"/><rect x="50.79" y="8.69" width="4.53" height="4.53"/><rect x="50.79" y="50.79" width="4.53" height="4.53"/><rect x="8.69" y="13.95" width="4.53" height="4.53"/><rect x="8.69" y="45.52" width="4.53" height="4.53"/><rect x="50.79" y="13.95" width="4.53" height="4.53"/><rect x="50.79" y="45.52" width="4.53" height="4.53"/><rect x="13.95" y="13.95" width="4.53" height="4.53"/><rect x="13.95" y="45.52" width="4.53" height="4.53"/><rect x="45.52" y="13.95" width="4.53" height="4.53"/><rect x="45.52" y="45.52" width="4.53" height="4.53"/><rect x="13.95" y="19.21" width="4.53" height="4.53"/><rect x="13.95" y="40.26" width="4.53" height="4.53"/><rect x="45.52" y="19.21" width="4.53" height="4.53"/><rect x="45.52" y="40.26" width="4.53" height="4.53"/><rect x="19.21" y="19.21" width="4.53" height="4.53"/><rect x="19.21" y="40.26" width="4.53" height="4.53"/><rect x="40.26" y="19.21" width="4.53" height="4.53"/><rect x="40.26" y="40.26" width="4.53" height="4.53"/><rect x="19.21" y="24.48" width="4.53" height="4.53"/><rect x="19.21" y="35.00" width="4.53" height="4.53"/><rect x="40.26" y="24.48" width="4.53" height="4.53"/><rect x="40.26" y="35.00" width="4.53" height="4.53"/><rect x="24.48" y="24.48" width="4.53" height="4.53"/><rect x="24.48" y="35.00" width="4.53" height="4.53"/><rect x="35.00" y="24.48" width="4.53" height="4.53"/><rect x="35.00" y="35.00" width="4.53" height="4.53"/><rect x="24.48" y="29.74" width="4.53" height="4.53"/><rect x="35.00" y="29.74" width="4.53" height="4.53"/></g></svg>